{
    "asset" : {
        "generator" : "Khronos glTF Blender I/O v1.2.20",
        "version" : "2.0"
    },
    "scene" : 0,
    "scenes" : [
        {
            "name" : "Scene",
            "nodes" : [
                0,
                1,
                110,
                111,
                112
            ]
        }
    ],
    "nodes" : [
        {
            "rotation" : [
                0.483536034822464,
                0.33687159419059753,
                -0.20870360732078552,
                0.7804827094078064
            ],
            "name" : "Camera.001",
            "translation" : [
                7.481131553649902,
                5.34366512298584,
                6.5076398849487305
            ]
        },
        {
            "rotation" : [
                0.16907575726509094,
                0.7558803558349609,
                -0.27217137813568115,
                0.570947527885437
            ],
            "name" : "Lamp.001",
            "translation" : [
                4.076245307922363,
                5.903861999511719,
                -1.0054539442062378
            ]
        },
        {
            "rotation" : [
                0.7071067690849304,
                0,
                0,
                0
            ],
            "name" : "attachpt_fx_landing_10",
            "translation" : [
                -3.2320001125335693,
                -1.272402048110962,
                4.687057018280029
            ]
        },
        {
            "rotation" : [
                0.6846134662628174,
                -0.1710193008184433,
                -0.1833956092596054,
                0.04264020919799805
            ],
            "name" : "attachpt_fx_landing_17",
            "translation" : [
                0.2572978138923645,
                -2.7308249473571777,
                20.635454177856445
            ]
        },
        {
            "rotation" : [
                0.6846134662628174,
                0.1710193008184433,
                0.1833956092596054,
                0.04264020919799805
            ],
            "name" : "attachpt_fx_landing_18",
            "translation" : [
                -0.25392279028892517,
                -2.7308249473571777,
                20.635454177856445
            ]
        },
        {
            "rotation" : [
                0.7071068286895752,
                0,
                0,
                0
            ],
            "name" : "attachpt_fx_landing_19",
            "translation" : [
                0.25529029965400696,
                -2.7308249473571777,
                20.635454177856445
            ]
        },
        {
            "rotation" : [
                0.7071068286895752,
                0,
                0,
                0
            ],
            "name" : "attachpt_fx_landing_20",
            "translation" : [
                -0.25392279028892517,
                -2.7308249473571777,
                20.635454177856445
            ]
        },
        {
            "rotation" : [
                -0.3182674050331116,
                -0.160420760512352,
                0.6314315795898438,
                0.3182674050331116
            ],
            "name" : "attachpt_fx_landing_21",
            "scale" : [
                1,
                1,
                1.000002384185791
            ],
            "translation" : [
                2.8419530391693115,
                -0.07829099893569946,
                13.910929679870605
            ]
        },
        {
            "rotation" : [
                -0.27059805393218994,
                -0.11208581179380417,
                0.6532815098762512,
                0.27059805393218994
            ],
            "name" : "attachpt_fx_landing_22",
            "translation" : [
                2.8419530391693115,
                -0.07829099893569946,
                13.34585952758789
            ]
        },
        {
            "rotation" : [
                0.3182674050331116,
                -0.160420760512352,
                0.6314315795898438,
                -0.3182674050331116
            ],
            "name" : "attachpt_fx_landing_23",
            "scale" : [
                1,
                1,
                1.000002384185791
            ],
            "translation" : [
                -2.8420000076293945,
                -0.07829099893569946,
                13.91100025177002
            ]
        },
        {
            "rotation" : [
                0.27059805393218994,
                -0.11208581179380417,
                0.6532815098762512,
                -0.27059805393218994
            ],
            "name" : "attachpt_fx_landing_24",
            "translation" : [
                -2.8420000076293945,
                -0.07829099893569946,
                13.345999717712402
            ]
        },
        {
            "rotation" : [
                0.7071067690849304,
                0,
                0,
                0
            ],
            "name" : "attachpt_fx_landing_9",
            "translation" : [
                3.2323598861694336,
                -1.272402048110962,
                4.687530994415283
            ]
        },
        {
            "rotation" : [
                0.016042694449424744,
                -0.00036329252179712057,
                0.7069247961044312,
                0.016042694449424744
            ],
            "name" : "attachpt_fx_navgreh_5",
            "scale" : [
                1,
                0.9999977946281433,
                1
            ],
            "translation" : [
                28.96796226501465,
                1.079520344734192,
                -12.052288055419922
            ]
        },
        {
            "rotation" : [
                -0.019126763567328453,
                0.7068480253219604,
                -0.0005166914779692888,
                -0.019126763567328453
            ],
            "name" : "attachpt_fx_navredh_6",
            "scale" : [
                1,
                0.9999975562095642,
                1
            ],
            "translation" : [
                -28.979270935058594,
                0.910213053226471,
                -12.052287101745605
            ]
        },
        {
            "rotation" : [
                0,
                0,
                0.7071067690849304,
                -4.329637364903428e-17
            ],
            "name" : "attachpt_fx_navwhih_15",
            "translation" : [
                5.927000999450684,
                2.4781110286712646,
                -33.69599914550781
            ]
        },
        {
            "rotation" : [
                0,
                0,
                0.7071067690849304,
                -4.329637364903428e-17
            ],
            "name" : "attachpt_fx_navwhih_16",
            "translation" : [
                -5.927117824554443,
                2.4781110286712646,
                -33.69636154174805
            ]
        },
        {
            "rotation" : [
                -0.019126763567328453,
                0.7068480253219604,
                -0.0005166914779692888,
                -0.019126763567328453
            ],
            "name" : "attachpt_fx_strobeh_7",
            "scale" : [
                1,
                0.9999975562095642,
                1
            ],
            "translation" : [
                -29.103822708129883,
                0.9034674167633057,
                -12.204716682434082
            ]
        },
        {
            "rotation" : [
                0.016042694449424744,
                -0.00036329252179712057,
                0.7069247961044312,
                0.016042694449424744
            ],
            "name" : "attachpt_fx_strobeh_8",
            "scale" : [
                1,
                0.9999977946281433,
                1
            ],
            "translation" : [
                29.092832565307617,
                1.0738502740859985,
                -12.204719543457031
            ]
        },
        {
            "rotation" : [
                0.7071067690849304,
                0,
                0,
                0
            ],
            "name" : "attachpt_fx_T332land2_11",
            "translation" : [
                3.2323598861694336,
                -1.272402048110962,
                4.728703022003174
            ]
        },
        {
            "rotation" : [
                0.7071067690849304,
                0,
                0,
                0
            ],
            "name" : "attachpt_fx_T332land2_12",
            "translation" : [
                -3.2320001125335693,
                -1.272402048110962,
                4.7288031578063965
            ]
        },
        {
            "name" : "custom_vis_ENG_N1_RPM_1_13_mcx_VC",
            "mesh" : 0
        },
        {
            "name" : "custom_vis_ENG_N1_RPM_2_18_mcx_VC",
            "mesh" : 1
        },
        {
            "name" : "custom_vis_switchwiper_02_mcx_VC",
            "mesh" : 2
        },
        {
            "name" : "custom_vis_switchwiper_04_mcx_VC",
            "mesh" : 3
        },
        {
            "name" : "node_1",
            "mesh" : 4
        },
        {
            "name" : "node_11",
            "mesh" : 5
        },
        {
            "name" : "node_3",
            "mesh" : 6
        },
        {
            "rotation" : [
                0,
                0.7071067690849304,
                0.7071067690849304,
                4.329637364903428e-17
            ],
            "name" : "node_33",
            "translation" : [
                0,
                0,
                -3.657599925994873
            ]
        },
        {
            "rotation" : [
                0,
                0.7071067690849304,
                0.7071067690849304,
                4.329637364903428e-17
            ],
            "name" : "node_34",
            "translation" : [
                0,
                -3.261359930038452,
                -6.8214240074157715
            ]
        },
        {
            "rotation" : [
                0,
                0.7071067690849304,
                0.7071067690849304,
                4.329637364903428e-17
            ],
            "name" : "node_35",
            "translation" : [
                0,
                2.968751907348633,
                5.248655796051025
            ]
        },
        {
            "rotation" : [
                0,
                0.7071067690849304,
                0.7071067690849304,
                4.329637364903428e-17
            ],
            "name" : "node_36",
            "translation" : [
                0,
                2.0116798877716064,
                -36.06088638305664
            ]
        },
        {
            "rotation" : [
                0,
                0.7071067690849304,
                0.7071067690849304,
                4.329637364903428e-17
            ],
            "name" : "node_37",
            "translation" : [
                0,
                2.0116798877716064,
                -36.06088638305664
            ]
        },
        {
            "rotation" : [
                0,
                0.7071067690849304,
                0.7071067690849304,
                4.329637364903428e-17
            ],
            "name" : "node_38",
            "translation" : [
                -5.605271816253662,
                -0.9997439980506897,
                7.936992168426514
            ]
        },
        {
            "rotation" : [
                0,
                0.7071067690849304,
                0.7071067690849304,
                4.329637364903428e-17
            ],
            "name" : "node_39",
            "translation" : [
                5.605271816253662,
                -0.9997439980506897,
                7.936992168426514
            ]
        },
        {
            "name" : "node_4",
            "mesh" : 7
        },
        {
            "rotation" : [
                0,
                0.7071067690849304,
                0.7071067690849304,
                4.329637364903428e-17
            ],
            "name" : "node_40",
            "translation" : [
                -2.679192066192627,
                6.102096080780029,
                -31.473648071289062
            ]
        },
        {
            "rotation" : [
                0,
                0.7071067690849304,
                0.7071067690849304,
                4.329637364903428e-17
            ],
            "name" : "node_41",
            "translation" : [
                2.679192066192627,
                6.102096080780029,
                -31.473648071289062
            ]
        },
        {
            "rotation" : [
                0,
                0.7071067690849304,
                0.7071067690849304,
                4.329637364903428e-17
            ],
            "name" : "node_42",
            "translation" : [
                0,
                1.389888048171997,
                24.121871948242188
            ]
        },
        {
            "rotation" : [
                0,
                0.7071067690849304,
                0.7071067690849304,
                4.329637364903428e-17
            ],
            "name" : "node_43",
            "translation" : [
                0,
                -5.053584098815918,
                20.406360626220703
            ]
        },
        {
            "rotation" : [
                0,
                0.7071067690849304,
                0.7071067690849304,
                4.329637364903428e-17
            ],
            "name" : "node_44",
            "translation" : [
                5.364480018615723,
                -6.089903831481934,
                -5.669280052185059
            ]
        },
        {
            "rotation" : [
                0,
                0.7071067690849304,
                0.7071067690849304,
                4.329637364903428e-17
            ],
            "name" : "node_45",
            "translation" : [
                -5.364480018615723,
                -6.089903831481934,
                -5.669280052185059
            ]
        },
        {
            "rotation" : [
                0,
                0.7071067690849304,
                0.7071067690849304,
                4.329637364903428e-17
            ],
            "name" : "node_46",
            "translation" : [
                0,
                -6.089903831481934,
                -5.669280052185059
            ]
        },
        {
            "rotation" : [
                0,
                0.7071067690849304,
                0.7071067690849304,
                4.329637364903428e-17
            ],
            "name" : "node_47",
            "translation" : [
                29.629608154296875,
                1.4630399942398071,
                -13.402055740356445
            ]
        },
        {
            "rotation" : [
                0,
                0.7071067690849304,
                0.7071067690849304,
                4.329637364903428e-17
            ],
            "name" : "node_48",
            "translation" : [
                -29.629608154296875,
                1.4630399942398071,
                -13.402055740356445
            ]
        },
        {
            "rotation" : [
                0,
                0.7071067690849304,
                0.7071067690849304,
                4.329637364903428e-17
            ],
            "name" : "node_49",
            "translation" : [
                0,
                0.7711439728736877,
                -32.674560546875
            ]
        },
        {
            "name" : "node_5",
            "mesh" : 8
        },
        {
            "rotation" : [
                0,
                0.7071067690849304,
                0.7071067690849304,
                4.329637364903428e-17
            ],
            "name" : "node_50",
            "translation" : [
                0,
                0,
                26.319480895996094
            ]
        },
        {
            "rotation" : [
                0,
                0.7071067690849304,
                0.7071067690849304,
                4.329637364903428e-17
            ],
            "name" : "node_51",
            "translation" : [
                0,
                1.7373600006103516,
                -30.632400512695312
            ]
        },
        {
            "rotation" : [
                0,
                0.7071067690849304,
                0.7071067690849304,
                4.329637364903428e-17
            ],
            "name" : "node_52",
            "translation" : [
                8.50391960144043,
                -0.5181599855422974,
                -2.7127199172973633
            ]
        },
        {
            "rotation" : [
                0,
                0.7071067690849304,
                0.7071067690849304,
                4.329637364903428e-17
            ],
            "name" : "node_53",
            "translation" : [
                20.695920944213867,
                0.7620000243186951,
                -11.064240455627441
            ]
        },
        {
            "rotation" : [
                0,
                0.7071067690849304,
                0.7071067690849304,
                4.329637364903428e-17
            ],
            "name" : "node_54",
            "translation" : [
                -8.50391960144043,
                -0.5181599855422974,
                -2.7127199172973633
            ]
        },
        {
            "rotation" : [
                0,
                0.7071067690849304,
                0.7071067690849304,
                4.329637364903428e-17
            ],
            "name" : "node_55",
            "translation" : [
                -20.695920944213867,
                0.7620000243186951,
                -11.064240455627441
            ]
        },
        {
            "rotation" : [
                0,
                0.7071067690849304,
                0.7071067690849304,
                4.329637364903428e-17
            ],
            "name" : "node_56",
            "translation" : [
                0.6096000075340271,
                0,
                26.212799072265625
            ]
        },
        {
            "rotation" : [
                0,
                0.7071067690849304,
                0.7071067690849304,
                4.329637364903428e-17
            ],
            "name" : "node_57",
            "translation" : [
                -0.6096000075340271,
                0,
                26.212799072265625
            ]
        },
        {
            "rotation" : [
                0,
                0.7071067690849304,
                0.7071067690849304,
                4.329637364903428e-17
            ],
            "name" : "node_58"
        },
        {
            "rotation" : [
                0,
                0.7071067690849304,
                0.7071067690849304,
                4.329637364903428e-17
            ],
            "name" : "node_59",
            "translation" : [
                0,
                0,
                15.849599838256836
            ]
        },
        {
            "name" : "node_6",
            "mesh" : 9
        },
        {
            "rotation" : [
                0,
                0.7071067690849304,
                0.7071067690849304,
                4.329637364903428e-17
            ],
            "name" : "node_60",
            "translation" : [
                0,
                0,
                3.352799892425537
            ]
        },
        {
            "rotation" : [
                0,
                0.7071067690849304,
                0.7071067690849304,
                4.329637364903428e-17
            ],
            "name" : "node_61",
            "translation" : [
                0,
                0,
                -9.144000053405762
            ]
        },
        {
            "rotation" : [
                0,
                0.7071067690849304,
                0.7071067690849304,
                4.329637364903428e-17
            ],
            "name" : "node_62",
            "translation" : [
                0,
                0,
                -22.097999572753906
            ]
        },
        {
            "rotation" : [
                0,
                0.7071067690849304,
                0.7071067690849304,
                4.329637364903428e-17
            ],
            "name" : "node_63",
            "translation" : [
                0,
                -1.8287999629974365,
                14.325599670410156
            ]
        },
        {
            "rotation" : [
                0,
                0.7071067690849304,
                0.7071067690849304,
                4.329637364903428e-17
            ],
            "name" : "node_64",
            "translation" : [
                0,
                -1.8287999629974365,
                -20.421600341796875
            ]
        },
        {
            "rotation" : [
                0,
                0.7071067690849304,
                0.7071067690849304,
                4.329637364903428e-17
            ],
            "name" : "node_65",
            "translation" : [
                9.43660831451416,
                -2.618232011795044,
                0.9997439980506897
            ]
        },
        {
            "rotation" : [
                0,
                0.7071067690849304,
                0.7071067690849304,
                4.329637364903428e-17
            ],
            "name" : "node_66",
            "translation" : [
                -9.43660831451416,
                -2.618232011795044,
                0.9997439980506897
            ]
        },
        {
            "rotation" : [
                -0.030843565240502357,
                -0.7064337730407715,
                -0.030843565240502357,
                0.7064337730407715
            ],
            "name" : "node_67",
            "translation" : [
                3.318000078201294,
                1.1829999685287476,
                -9.753000259399414
            ]
        },
        {
            "rotation" : [
                -0.030843565240502357,
                0.7064337730407715,
                0.030843565240502357,
                0.7064337730407715
            ],
            "name" : "node_68",
            "translation" : [
                -3.318000078201294,
                1.1829999685287476,
                -9.753000259399414
            ]
        },
        {
            "rotation" : [
                -0.0416005477309227,
                -0.3004195988178253,
                -0.013116602785885334,
                0.95280921459198
            ],
            "name" : "node_69",
            "translation" : [
                1.9140000343322754,
                1.0460000038146973,
                26.132999420166016
            ]
        },
        {
            "name" : "node_7",
            "mesh" : 10
        },
        {
            "rotation" : [
                -0.0416005477309227,
                0.3004195988178253,
                0.013116602785885334,
                0.95280921459198
            ],
            "name" : "node_70",
            "translation" : [
                -1.9140000343322754,
                1.0460000038146973,
                26.132999420166016
            ]
        },
        {
            "rotation" : [
                0,
                0.9990482330322266,
                0.04361938685178757,
                6.117203785388083e-17
            ],
            "name" : "node_71",
            "translation" : [
                0,
                -3.127000093460083,
                -19.003999710083008
            ]
        },
        {
            "rotation" : [
                0,
                0.7071067690849304,
                0.7071067690849304,
                4.329637364903428e-17
            ],
            "name" : "node_72",
            "translation" : [
                0,
                -4.329999923706055,
                26.055999755859375
            ]
        },
        {
            "rotation" : [
                0,
                0.9961947202682495,
                0.08715574443340302,
                6.099731745617493e-17
            ],
            "name" : "node_73",
            "translation" : [
                0,
                12.154999732971191,
                -33.902000427246094
            ]
        },
        {
            "rotation" : [
                0,
                0.7071067690849304,
                0.7071067690849304,
                4.329637364903428e-17
            ],
            "name" : "node_74",
            "translation" : [
                -1,
                0,
                0
            ]
        },
        {
            "rotation" : [
                0,
                0.9998477101325989,
                0.017452405765652657,
                6.122099371125417e-17
            ],
            "name" : "node_75",
            "translation" : [
                -0.6000000238418579,
                0,
                -1.2000000476837158
            ]
        },
        {
            "rotation" : [
                -0.06777319312095642,
                0.7038514614105225,
                -0.06777319312095642,
                0.7038514018058777
            ],
            "name" : "custom_vis_APU_ON_FIRE_07_mcx_VC",
            "mesh" : 11,
            "translation" : [
                0.17206400632858276,
                -6.980110168457031,
                0.8108599781990051
            ]
        },
        {
            "name" : "custom_vis_ENG_N1_RPM_2_08_mcx_VC_0",
            "mesh" : 12,
            "children" : [
                74
            ],
            "translation" : [
                0.008867999538779259,
                -26.142099380493164,
                1.505226969718933
            ]
        },
        {
            "name" : "custom_vis_ENG_N1_RPM_1_09_mcx_VC",
            "mesh" : 13,
            "translation" : [
                -9.408363342285156,
                -2.428131103515625,
                -3.5580039024353027
            ]
        },
        {
            "name" : "custom_vis_ENG_N1_RPM_1_11_mcx_VC",
            "mesh" : 14,
            "translation" : [
                -9.408363342285156,
                -2.428131103515625,
                -3.5580039024353027
            ]
        },
        {
            "name" : "custom_vis_ENG_N1_RPM_2_10_mcx_VC",
            "mesh" : 15,
            "translation" : [
                9.443208694458008,
                -2.4281299114227295,
                -3.5580039024353027
            ]
        },
        {
            "name" : "custom_vis_ENG_N1_RPM_2_12_mcx_VC",
            "mesh" : 16,
            "translation" : [
                9.443208694458008,
                -2.4281299114227295,
                -3.5580039024353027
            ]
        },
        {
            "name" : "custom_vis_ENG_N1_RPM_2_08_mcx_VC_1",
            "mesh" : 17,
            "children" : [
                76,
                77,
                78,
                79
            ],
            "translation" : [
                0,
                0.48225799202919006,
                0.9850220084190369
            ]
        },
        {
            "rotation" : [
                0.696438193321228,
                -0.12236804515123367,
                0.6964381337165833,
                -0.12236804515123367
            ],
            "name" : "node_101",
            "translation" : [
                0.05211801454424858,
                0.03660201281309128,
                1.8767014741897583
            ]
        },
        {
            "rotation" : [
                -0.17807862162590027,
                0.6843157410621643,
                -0.17807862162590027,
                0.6843157410621643
            ],
            "name" : "node_103",
            "translation" : [
                -0.0018820007098838687,
                0.10537203401327133,
                0.567264199256897
            ]
        },
        {
            "rotation" : [
                0.9692310094833374,
                0,
                0,
                0.2461528331041336
            ],
            "name" : "node_102",
            "children" : [
                82
            ],
            "translation" : [
                0.054000016301870346,
                0.06757402420043945,
                2.924830675125122
            ]
        },
        {
            "rotation" : [
                0.049190621823072433,
                0.7053937315940857,
                0.049190621823072433,
                0.7053937315940857
            ],
            "name" : "node_105",
            "translation" : [
                -0.04466904699802399,
                0.9585650563240051,
                0.10415711253881454
            ]
        },
        {
            "rotation" : [
                0.003842828329652548,
                0.7070963382720947,
                0.003842828329652548,
                0.7070963382720947
            ],
            "name" : "node_106",
            "translation" : [
                -0.044668048620224,
                -0.9498240947723389,
                0.07181107997894287
            ]
        },
        {
            "rotation" : [
                0.027355097234249115,
                0.7065773606300354,
                0.027355097234249115,
                0.706577479839325
            ],
            "name" : "node_107",
            "translation" : [
                0.005197005812078714,
                -0.9722170829772949,
                0.6901247501373291
            ]
        },
        {
            "rotation" : [
                0.027355097234249115,
                0.7065773606300354,
                0.027355097234249115,
                0.706577479839325
            ],
            "name" : "node_108",
            "translation" : [
                0.005198005586862564,
                -0.9199219942092896,
                0.015746016055345535
            ]
        },
        {
            "name" : "node_111",
            "translation" : [
                0.9799277186393738,
                0,
                0
            ]
        },
        {
            "rotation" : [
                -0.46734124422073364,
                0.8840770721435547,
                0,
                0
            ],
            "name" : "node_110",
            "children" : [
                88
            ],
            "translation" : [
                0.35597437620162964,
                0.7206657528877258,
                -0.006268007215112448
            ]
        },
        {
            "rotation" : [
                0.2505219280719757,
                -0.6612401008605957,
                -0.2505217492580414,
                0.6612404584884644
            ],
            "name" : "node_109",
            "children" : [
                89
            ],
            "translation" : [
                -0.001071001635864377,
                0.8088126182556152,
                0.2227732390165329
            ]
        },
        {
            "rotation" : [
                0.9883615374565125,
                0,
                0,
                -0.1521228700876236
            ],
            "name" : "node_104",
            "children" : [
                84,
                85,
                86,
                87,
                90
            ],
            "translation" : [
                0.06106003373861313,
                -0.43493539094924927,
                3.4219183921813965
            ]
        },
        {
            "rotation" : [
                0.1867162585258484,
                0.6820096373558044,
                0.1867162585258484,
                0.6820095777511597
            ],
            "name" : "node_113",
            "translation" : [
                0.005118000786751509,
                -0.033385008573532104,
                0.23217804729938507
            ]
        },
        {
            "rotation" : [
                -0.5224987268447876,
                0,
                0,
                0.8526400923728943
            ],
            "name" : "node_112",
            "children" : [
                92
            ],
            "translation" : [
                0.047000013291835785,
                -0.3630676865577698,
                2.4952523708343506
            ]
        },
        {
            "rotation" : [
                0.9883615374565125,
                0,
                0,
                0.1521230787038803
            ],
            "name" : "node_100",
            "children" : [
                81,
                83,
                91,
                93
            ],
            "translation" : [
                -5.3769989013671875,
                -4.6540398597717285,
                -1.2393770217895508
            ]
        },
        {
            "rotation" : [
                0.12236837297677994,
                0.6964380145072937,
                0.12236837297677994,
                0.6964380741119385
            ],
            "name" : "node_89",
            "translation" : [
                -0.09793102741241455,
                -0.036603011190891266,
                -1.8767024278640747
            ]
        },
        {
            "rotation" : [
                -0.17807862162590027,
                0.6843157410621643,
                -0.17807862162590027,
                0.6843157410621643
            ],
            "name" : "node_91",
            "translation" : [
                -0.04365501552820206,
                0.10572803765535355,
                0.5674591660499573
            ]
        },
        {
            "rotation" : [
                -0.2461528331041336,
                0,
                0,
                0.9692310094833374
            ],
            "name" : "node_90",
            "children" : [
                96
            ],
            "translation" : [
                -0.04055001214146614,
                -0.06796202063560486,
                -2.924952745437622
            ]
        },
        {
            "rotation" : [
                0.044734928756952286,
                0.7056899666786194,
                0.044734928756952286,
                0.7056902647018433
            ],
            "name" : "node_93",
            "translation" : [
                -0.04871900752186775,
                0.9236910939216614,
                0.060957010835409164
            ]
        },
        {
            "rotation" : [
                0.027355097234249115,
                0.7065773606300354,
                0.027355097234249115,
                0.706577479839325
            ],
            "name" : "node_94",
            "translation" : [
                -0.048718009144067764,
                -0.9196611046791077,
                0.016572002321481705
            ]
        },
        {
            "rotation" : [
                0.027355097234249115,
                0.7065773606300354,
                0.027355097234249115,
                0.706577479839325
            ],
            "name" : "node_95",
            "translation" : [
                -0.04871900752186775,
                -0.9719572067260742,
                0.6909500956535339
            ]
        },
        {
            "rotation" : [
                -0.46734094619750977,
                0.8840771317481995,
                0,
                0
            ],
            "name" : "node_97",
            "translation" : [
                0.3561181426048279,
                0.7215192914009094,
                0.027066010981798172
            ]
        },
        {
            "rotation" : [
                0.2505216896533966,
                -0.66124027967453,
                -0.2505216896533966,
                0.6612403988838196
            ],
            "name" : "node_96",
            "children" : [
                101
            ],
            "translation" : [
                -0.021653003990650177,
                0.8054646253585815,
                0.22712700068950653
            ]
        },
        {
            "rotation" : [
                0.15212298929691315,
                0,
                0,
                0.9883615970611572
            ],
            "name" : "node_92",
            "children" : [
                98,
                99,
                100,
                102
            ],
            "translation" : [
                -0.032482046633958817,
                0.4290960729122162,
                -3.435072422027588
            ]
        },
        {
            "rotation" : [
                0.1867162585258484,
                0.6820096373558044,
                0.1867162585258484,
                0.6820095777511597
            ],
            "name" : "node_99",
            "translation" : [
                -0.051206011325120926,
                -0.03338600695133209,
                0.23217804729938507
            ]
        },
        {
            "rotation" : [
                0.8526400923728943,
                0,
                0,
                0.5224987268447876
            ],
            "name" : "node_98",
            "children" : [
                104
            ],
            "translation" : [
                -0.046725016087293625,
                0.36311954259872437,
                -2.495307207107544
            ]
        },
        {
            "rotation" : [
                -0.1521230787038803,
                0,
                0,
                0.9883615374565125
            ],
            "name" : "node_88",
            "children" : [
                95,
                97,
                103,
                105
            ],
            "translation" : [
                5.37679386138916,
                -4.6540398597717285,
                -1.2393770217895508
            ]
        },
        {
            "rotation" : [
                0,
                0.7071067690849304,
                0.7071067690849304,
                4.329637364903428e-17
            ],
            "name" : "node_76",
            "children" : [
                75,
                80,
                94,
                106
            ]
        },
        {
            "name" : "node_8"
        },
        {
            "name" : "node_9",
            "mesh" : 18
        },
        {
            "name" : "node_0",
            "children" : [
                2,
                3,
                4,
                5,
                6,
                7,
                8,
                9,
                10,
                11,
                12,
                13,
                14,
                15,
                16,
                17,
                18,
                19,
                20,
                21,
                22,
                23,
                24,
                25,
                26,
                27,
                28,
                29,
                30,
                31,
                32,
                33,
                34,
                35,
                36,
                37,
                38,
                39,
                40,
                41,
                42,
                43,
                44,
                45,
                46,
                47,
                48,
                49,
                50,
                51,
                52,
                53,
                54,
                55,
                56,
                57,
                58,
                59,
                60,
                61,
                62,
                63,
                64,
                65,
                66,
                67,
                68,
                69,
                70,
                71,
                72,
                73,
                107,
                108,
                109
            ]
        },
        {
            "rotation" : [
                0.16907575726509094,
                0.7558803558349609,
                -0.27217137813568115,
                0.570947527885437
            ],
            "name" : "Lamp",
            "translation" : [
                4.076245307922363,
                5.903861999511719,
                -1.0054539442062378
            ]
        },
        {
            "rotation" : [
                0.483536034822464,
                0.33687159419059753,
                -0.20870360732078552,
                0.7804827094078064
            ],
            "name" : "Camera",
            "translation" : [
                7.481131553649902,
                5.34366512298584,
                6.5076398849487305
            ]
        }
    ],
    "materials" : [
        {
            "name" : "material03",
            "pbrMetallicRoughness" : {
                "baseColorTexture" : {
                    "index" : 0,
                    "texCoord" : 0
                },
                "metallicFactor" : 1,
                "baseColorFactor" : [
                    0.5879999995231628,
                    0.5879999995231628,
                    0.5879999995231628,
                    1
                ],
                "roughnessFactor" : 1
            }
        },
        {
            "name" : "material05",
            "pbrMetallicRoughness" : {
                "baseColorTexture" : {
                    "index" : 1,
                    "texCoord" : 0
                },
                "metallicFactor" : 1,
                "baseColorFactor" : [
                    0.5879999995231628,
                    0.5879999995231628,
                    0.5879999995231628,
                    1
                ],
                "roughnessFactor" : 1
            }
        },
        {
            "name" : "material04",
            "pbrMetallicRoughness" : {
                "metallicFactor" : 1,
                "baseColorFactor" : [
                    0.23529399931430817,
                    0.00392200006172061,
                    0.00392200006172061,
                    0.5
                ],
                "roughnessFactor" : 1
            }
        },
        {
            "name" : "material06",
            "pbrMetallicRoughness" : {
                "baseColorTexture" : {
                    "index" : 2,
                    "texCoord" : 0
                },
                "metallicFactor" : 1,
                "baseColorFactor" : [
                    0.5879999995231628,
                    0.5879999995231628,
                    0.5879999995231628,
                    1
                ],
                "roughnessFactor" : 1
            }
        },
        {
            "name" : "material07",
            "pbrMetallicRoughness" : {
                "baseColorTexture" : {
                    "index" : 3,
                    "texCoord" : 0
                },
                "metallicFactor" : 1,
                "baseColorFactor" : [
                    0.5879999995231628,
                    0.5879999995231628,
                    0.5879999995231628,
                    1
                ],
                "roughnessFactor" : 1
            }
        },
        {
            "name" : "material02",
            "pbrMetallicRoughness" : {
                "baseColorTexture" : {
                    "index" : 4,
                    "texCoord" : 0
                },
                "metallicFactor" : 1,
                "baseColorFactor" : [
                    0.5879999995231628,
                    0.5879999995231628,
                    0.5879999995231628,
                    1
                ],
                "roughnessFactor" : 1
            }
        },
        {
            "name" : "material01",
            "pbrMetallicRoughness" : {
                "metallicFactor" : 1,
                "baseColorFactor" : [
                    0.5879999995231628,
                    0.5879999995231628,
                    0.5879999995231628,
                    0
                ],
                "roughnessFactor" : 1
            }
        }
    ],
    "meshes" : [
        {
            "name" : "part011",
            "primitives" : [
                {
                    "attributes" : {
                        "TEXCOORD_0" : 0,
                        "NORMAL" : 1,
                        "POSITION" : 2
                    },
                    "material" : 0,
                    "indices" : 3
                }
            ]
        },
        {
            "name" : "part012",
            "primitives" : [
                {
                    "attributes" : {
                        "TEXCOORD_0" : 4,
                        "NORMAL" : 5,
                        "POSITION" : 6
                    },
                    "material" : 0,
                    "indices" : 3
                }
            ]
        },
        {
            "name" : "part001",
            "primitives" : [
                {
                    "attributes" : {
                        "TEXCOORD_0" : 7,
                        "NORMAL" : 8,
                        "POSITION" : 9
                    },
                    "material" : 0,
                    "indices" : 10
                }
            ]
        },
        {
            "name" : "part008",
            "primitives" : [
                {
                    "attributes" : {
                        "TEXCOORD_0" : 11,
                        "NORMAL" : 12,
                        "POSITION" : 13
                    },
                    "material" : 0,
                    "indices" : 14
                }
            ]
        },
        {
            "name" : "part000",
            "primitives" : [
                {
                    "attributes" : {
                        "TEXCOORD_0" : 15,
                        "NORMAL" : 16,
                        "POSITION" : 17
                    },
                    "material" : 1,
                    "indices" : 18
                }
            ]
        },
        {
            "name" : "part009",
            "primitives" : [
                {
                    "attributes" : {
                        "TEXCOORD_0" : 19,
                        "NORMAL" : 20,
                        "POSITION" : 21
                    },
                    "material" : 2,
                    "indices" : 22
                }
            ]
        },
        {
            "name" : "part002",
            "primitives" : [
                {
                    "attributes" : {
                        "TEXCOORD_0" : 23,
                        "NORMAL" : 24,
                        "POSITION" : 25
                    },
                    "material" : 3,
                    "indices" : 26
                }
            ]
        },
        {
            "name" : "part003",
            "primitives" : [
                {
                    "attributes" : {
                        "TEXCOORD_0" : 27,
                        "NORMAL" : 28,
                        "POSITION" : 29
                    },
                    "material" : 3,
                    "indices" : 26
                }
            ]
        },
        {
            "name" : "part004",
            "primitives" : [
                {
                    "attributes" : {
                        "TEXCOORD_0" : 30,
                        "NORMAL" : 31,
                        "POSITION" : 32
                    },
                    "material" : 4,
                    "indices" : 33
                }
            ]
        },
        {
            "name" : "part005",
            "primitives" : [
                {
                    "attributes" : {
                        "TEXCOORD_0" : 34,
                        "NORMAL" : 35,
                        "POSITION" : 36
                    },
                    "material" : 0,
                    "indices" : 37
                }
            ]
        },
        {
            "name" : "part006",
            "primitives" : [
                {
                    "attributes" : {
                        "TEXCOORD_0" : 38,
                        "NORMAL" : 39,
                        "POSITION" : 40
                    },
                    "material" : 5,
                    "indices" : 41
                }
            ]
        },
        {
            "name" : "part014",
            "primitives" : [
                {
                    "attributes" : {
                        "TEXCOORD_0" : 42,
                        "NORMAL" : 43,
                        "POSITION" : 44
                    },
                    "material" : 6,
                    "indices" : 45
                }
            ]
        },
        {
            "name" : "part013",
            "primitives" : [
                {
                    "attributes" : {
                        "TEXCOORD_0" : 46,
                        "NORMAL" : 47,
                        "POSITION" : 48
                    },
                    "material" : 6,
                    "indices" : 49
                }
            ]
        },
        {
            "name" : "part016",
            "primitives" : [
                {
                    "attributes" : {
                        "TEXCOORD_0" : 50,
                        "NORMAL" : 51,
                        "POSITION" : 52
                    },
                    "material" : 6,
                    "indices" : 45
                }
            ]
        },
        {
            "name" : "part020",
            "primitives" : [
                {
                    "attributes" : {
                        "TEXCOORD_0" : 53,
                        "NORMAL" : 54,
                        "POSITION" : 55
                    },
                    "material" : 6,
                    "indices" : 45
                }
            ]
        },
        {
            "name" : "part018",
            "primitives" : [
                {
                    "attributes" : {
                        "TEXCOORD_0" : 56,
                        "NORMAL" : 57,
                        "POSITION" : 58
                    },
                    "material" : 6,
                    "indices" : 45
                }
            ]
        },
        {
            "name" : "part022",
            "primitives" : [
                {
                    "attributes" : {
                        "TEXCOORD_0" : 59,
                        "NORMAL" : 60,
                        "POSITION" : 61
                    },
                    "material" : 6,
                    "indices" : 45
                }
            ]
        },
        {
            "name" : "part015",
            "primitives" : [
                {
                    "attributes" : {
                        "TEXCOORD_0" : 62,
                        "NORMAL" : 63,
                        "POSITION" : 64
                    },
                    "material" : 6,
                    "indices" : 45
                }
            ]
        },
        {
            "name" : "part007",
            "primitives" : [
                {
                    "attributes" : {
                        "TEXCOORD_0" : 65,
                        "NORMAL" : 66,
                        "POSITION" : 67
                    },
                    "material" : 6,
                    "indices" : 68
                }
            ]
        }
    ],
    "textures" : [
        {
            "source" : 0
        },
        {
            "source" : 1
        },
        {
            "source" : 1
        },
        {
            "source" : 2
        },
        {
            "source" : 3
        }
    ],
    "images" : [
        {
            "name" : "main",
            "uri" : "main.jpg",
            "mimeType" : "image/jpeg"
        },
        {
            "name" : "wing_l",
            "uri" : "wing_l.jpg",
            "mimeType" : "image/jpeg"
        },
        {
            "name" : "wing_r",
            "uri" : "wing_r.jpg",
            "mimeType" : "image/jpeg"
        },
        {
            "name" : "glass",
            "uri" : "glass.jpg",
            "mimeType" : "image/jpeg"
        }
    ],
    "accessors" : [
        {
            "componentType" : 5126,
            "bufferView" : 0,
            "count" : 785,
            "type" : "VEC2"
        },
        {
            "componentType" : 5126,
            "bufferView" : 1,
            "count" : 785,
            "type" : "VEC3"
        },
        {
            "max" : [
                -7.938730716705322,
                -1.1556159257888794,
                4.4699907302856445
            ],
            "min" : [
                -10.797998428344727,
                -4.014875411987305,
                3.3524510860443115
            ],
            "componentType" : 5126,
            "bufferView" : 2,
            "count" : 785,
            "type" : "VEC3"
        },
        {
            "componentType" : 5123,
            "bufferView" : 3,
            "count" : 1512,
            "type" : "SCALAR"
        },
        {
            "componentType" : 5126,
            "bufferView" : 4,
            "count" : 785,
            "type" : "VEC2"
        },
        {
            "componentType" : 5126,
            "bufferView" : 5,
            "count" : 785,
            "type" : "VEC3"
        },
        {
            "max" : [
                10.797669410705566,
                -1.1556159257888794,
                4.4699907302856445
            ],
            "min" : [
                7.93840217590332,
                -4.014875411987305,
                3.3524510860443115
            ],
            "componentType" : 5126,
            "bufferView" : 6,
            "count" : 785,
            "type" : "VEC3"
        },
        {
            "componentType" : 5126,
            "bufferView" : 7,
            "count" : 373,
            "type" : "VEC2"
        },
        {
            "componentType" : 5126,
            "bufferView" : 8,
            "count" : 373,
            "type" : "VEC3"
        },
        {
            "max" : [
                0.8449000120162964,
                0.8851699829101562,
                25.604520797729492
            ],
            "min" : [
                -0.8346199989318848,
                0.7352200150489807,
                25.199769973754883
            ],
            "componentType" : 5126,
            "bufferView" : 9,
            "count" : 373,
            "type" : "VEC3"
        },
        {
            "componentType" : 5123,
            "bufferView" : 10,
            "count" : 612,
            "type" : "SCALAR"
        },
        {
            "componentType" : 5126,
            "bufferView" : 11,
            "count" : 416,
            "type" : "VEC2"
        },
        {
            "componentType" : 5126,
            "bufferView" : 12,
            "count" : 416,
            "type" : "VEC3"
        },
        {
            "max" : [
                0.8448963165283203,
                0.8851696848869324,
                25.604520797729492
            ],
            "min" : [
                -0.8346133828163147,
                0.7352184653282166,
                25.199779510498047
            ],
            "componentType" : 5126,
            "bufferView" : 13,
            "count" : 416,
            "type" : "VEC3"
        },
        {
            "componentType" : 5123,
            "bufferView" : 14,
            "count" : 612,
            "type" : "SCALAR"
        },
        {
            "componentType" : 5126,
            "bufferView" : 15,
            "count" : 3215,
            "type" : "VEC2"
        },
        {
            "componentType" : 5126,
            "bufferView" : 16,
            "count" : 3215,
            "type" : "VEC3"
        },
        {
            "max" : [
                30.449861526489258,
                2.4974982738494873,
                5.980030059814453
            ],
            "min" : [
                2.4707400798797607,
                -2.2828400135040283,
                -15.403457641601562
            ],
            "componentType" : 5126,
            "bufferView" : 17,
            "count" : 3215,
            "type" : "VEC3"
        },
        {
            "componentType" : 5123,
            "bufferView" : 18,
            "count" : 6843,
            "type" : "SCALAR"
        },
        {
            "componentType" : 5126,
            "bufferView" : 19,
            "count" : 128,
            "type" : "VEC2"
        },
        {
            "componentType" : 5126,
            "bufferView" : 20,
            "count" : 128,
            "type" : "VEC3"
        },
        {
            "max" : [
                0.7188122272491455,
                1.605360507965088,
                25.05839729309082
            ],
            "min" : [
                -0.7226949334144592,
                1.2977325916290283,
                24.415191650390625
            ],
            "componentType" : 5126,
            "bufferView" : 21,
            "count" : 128,
            "type" : "VEC3"
        },
        {
            "componentType" : 5123,
            "bufferView" : 22,
            "count" : 156,
            "type" : "SCALAR"
        },
        {
            "componentType" : 5126,
            "bufferView" : 23,
            "count" : 340,
            "type" : "VEC2"
        },
        {
            "componentType" : 5126,
            "bufferView" : 24,
            "count" : 340,
            "type" : "VEC3"
        },
        {
            "max" : [
                -1.342210054397583,
                -1.4989299774169922,
                -3.7176599502563477
            ],
            "min" : [
                -3.2935800552368164,
                -2.1910200119018555,
                -5.554279804229736
            ],
            "componentType" : 5126,
            "bufferView" : 25,
            "count" : 340,
            "type" : "VEC3"
        },
        {
            "componentType" : 5123,
            "bufferView" : 26,
            "count" : 1008,
            "type" : "SCALAR"
        },
        {
            "componentType" : 5126,
            "bufferView" : 27,
            "count" : 340,
            "type" : "VEC2"
        },
        {
            "componentType" : 5126,
            "bufferView" : 28,
            "count" : 340,
            "type" : "VEC3"
        },
        {
            "max" : [
                3.277139902114868,
                -1.5942000150680542,
                -3.702850103378296
            ],
            "min" : [
                1.3258800506591797,
                -2.264240026473999,
                -5.559289932250977
            ],
            "componentType" : 5126,
            "bufferView" : 29,
            "count" : 340,
            "type" : "VEC3"
        },
        {
            "componentType" : 5126,
            "bufferView" : 30,
            "count" : 14576,
            "type" : "VEC2"
        },
        {
            "componentType" : 5126,
            "bufferView" : 31,
            "count" : 14576,
            "type" : "VEC3"
        },
        {
            "max" : [
                28.751827239990234,
                2.315473794937134,
                5.980030059814453
            ],
            "min" : [
                -30.47325325012207,
                -3.8495731353759766,
                -15.403454780578613
            ],
            "componentType" : 5126,
            "bufferView" : 32,
            "count" : 14576,
            "type" : "VEC3"
        },
        {
            "componentType" : 5123,
            "bufferView" : 33,
            "count" : 25587,
            "type" : "SCALAR"
        },
        {
            "componentType" : 5126,
            "bufferView" : 34,
            "count" : 36210,
            "type" : "VEC2"
        },
        {
            "componentType" : 5126,
            "bufferView" : 35,
            "count" : 36210,
            "type" : "VEC3"
        },
        {
            "max" : [
                11.042499542236328,
                11.442930221557617,
                26.956960678100586
            ],
            "min" : [
                -11.042510032653809,
                -5.359302997589111,
                -37.23854446411133
            ],
            "componentType" : 5126,
            "bufferView" : 36,
            "count" : 36210,
            "type" : "VEC3"
        },
        {
            "componentType" : 5123,
            "bufferView" : 37,
            "count" : 81162,
            "type" : "SCALAR"
        },
        {
            "componentType" : 5126,
            "bufferView" : 38,
            "count" : 1218,
            "type" : "VEC2"
        },
        {
            "componentType" : 5126,
            "bufferView" : 39,
            "count" : 1218,
            "type" : "VEC3"
        },
        {
            "max" : [
                29.141983032226562,
                3.2299399375915527,
                25.66044044494629
            ],
            "min" : [
                -29.153583526611328,
                -3.099910020828247,
                -35.828128814697266
            ],
            "componentType" : 5126,
            "bufferView" : 40,
            "count" : 1218,
            "type" : "VEC3"
        },
        {
            "componentType" : 5123,
            "bufferView" : 41,
            "count" : 2682,
            "type" : "SCALAR"
        },
        {
            "componentType" : 5126,
            "bufferView" : 42,
            "count" : 4,
            "type" : "VEC2"
        },
        {
            "componentType" : 5126,
            "bufferView" : 43,
            "count" : 4,
            "type" : "VEC3"
        },
        {
            "max" : [
                0.0001900000061141327,
                -4.999999873689376e-05,
                0.0027600000612437725
            ],
            "min" : [
                -0.0001900000061141327,
                -4.999999873689376e-05,
                -0.0027600000612437725
            ],
            "componentType" : 5126,
            "bufferView" : 44,
            "count" : 4,
            "type" : "VEC3"
        },
        {
            "componentType" : 5123,
            "bufferView" : 45,
            "count" : 6,
            "type" : "SCALAR"
        },
        {
            "componentType" : 5126,
            "bufferView" : 46,
            "count" : 24,
            "type" : "VEC2"
        },
        {
            "componentType" : 5126,
            "bufferView" : 47,
            "count" : 24,
            "type" : "VEC3"
        },
        {
            "max" : [
                0.056609999388456345,
                0.0865899994969368,
                0
            ],
            "min" : [
                -0.056609999388456345,
                -0.0865899994969368,
                -0.3463500142097473
            ],
            "componentType" : 5126,
            "bufferView" : 48,
            "count" : 24,
            "type" : "VEC3"
        },
        {
            "componentType" : 5123,
            "bufferView" : 49,
            "count" : 36,
            "type" : "SCALAR"
        },
        {
            "componentType" : 5126,
            "bufferView" : 50,
            "count" : 4,
            "type" : "VEC2"
        },
        {
            "componentType" : 5126,
            "bufferView" : 51,
            "count" : 4,
            "type" : "VEC3"
        },
        {
            "max" : [
                0.0001900000061141327,
                -4.999999873689376e-05,
                0.0027699999045580626
            ],
            "min" : [
                -0.0001900000061141327,
                -4.999999873689376e-05,
                -0.0027699999045580626
            ],
            "componentType" : 5126,
            "bufferView" : 52,
            "count" : 4,
            "type" : "VEC3"
        },
        {
            "componentType" : 5126,
            "bufferView" : 53,
            "count" : 4,
            "type" : "VEC2"
        },
        {
            "componentType" : 5126,
            "bufferView" : 54,
            "count" : 4,
            "type" : "VEC3"
        },
        {
            "max" : [
                0.0001900000061141327,
                -4.999999873689376e-05,
                0.0027699999045580626
            ],
            "min" : [
                -0.0001900000061141327,
                -4.999999873689376e-05,
                -0.0027699999045580626
            ],
            "componentType" : 5126,
            "bufferView" : 55,
            "count" : 4,
            "type" : "VEC3"
        },
        {
            "componentType" : 5126,
            "bufferView" : 56,
            "count" : 4,
            "type" : "VEC2"
        },
        {
            "componentType" : 5126,
            "bufferView" : 57,
            "count" : 4,
            "type" : "VEC3"
        },
        {
            "max" : [
                0.0001900000061141327,
                -4.999999873689376e-05,
                0.0027699999045580626
            ],
            "min" : [
                -0.0001900000061141327,
                -4.999999873689376e-05,
                -0.0027699999045580626
            ],
            "componentType" : 5126,
            "bufferView" : 58,
            "count" : 4,
            "type" : "VEC3"
        },
        {
            "componentType" : 5126,
            "bufferView" : 59,
            "count" : 4,
            "type" : "VEC2"
        },
        {
            "componentType" : 5126,
            "bufferView" : 60,
            "count" : 4,
            "type" : "VEC3"
        },
        {
            "max" : [
                0.0001900000061141327,
                -4.999999873689376e-05,
                0.0027699999045580626
            ],
            "min" : [
                -0.0001900000061141327,
                -4.999999873689376e-05,
                -0.0027699999045580626
            ],
            "componentType" : 5126,
            "bufferView" : 61,
            "count" : 4,
            "type" : "VEC3"
        },
        {
            "componentType" : 5126,
            "bufferView" : 62,
            "count" : 4,
            "type" : "VEC2"
        },
        {
            "componentType" : 5126,
            "bufferView" : 63,
            "count" : 4,
            "type" : "VEC3"
        },
        {
            "max" : [
                0,
                0.15273000299930573,
                0.18182000517845154
            ],
            "min" : [
                -0.8727399706840515,
                0.15273000299930573,
                -0.18182000517845154
            ],
            "componentType" : 5126,
            "bufferView" : 64,
            "count" : 4,
            "type" : "VEC3"
        },
        {
            "componentType" : 5126,
            "bufferView" : 65,
            "count" : 156,
            "type" : "VEC2"
        },
        {
            "componentType" : 5126,
            "bufferView" : 66,
            "count" : 156,
            "type" : "VEC3"
        },
        {
            "max" : [
                20.018823623657227,
                1.7014586925506592,
                -4.466383457183838
            ],
            "min" : [
                -20.039472579956055,
                -4.6748833656311035,
                -32.56342315673828
            ],
            "componentType" : 5126,
            "bufferView" : 67,
            "count" : 156,
            "type" : "VEC3"
        },
        {
            "componentType" : 5123,
            "bufferView" : 68,
            "count" : 624,
            "type" : "SCALAR"
        }
    ],
    "bufferViews" : [
        {
            "byteOffset" : 0,
            "byteLength" : 6280,
            "buffer" : 0
        },
        {
            "byteOffset" : 6280,
            "byteLength" : 9420,
            "buffer" : 0
        },
        {
            "byteOffset" : 15700,
            "byteLength" : 9420,
            "buffer" : 0
        },
        {
            "byteOffset" : 25120,
            "byteLength" : 3024,
            "buffer" : 0
        },
        {
            "byteOffset" : 28144,
            "byteLength" : 6280,
            "buffer" : 0
        },
        {
            "byteOffset" : 34424,
            "byteLength" : 9420,
            "buffer" : 0
        },
        {
            "byteOffset" : 43844,
            "byteLength" : 9420,
            "buffer" : 0
        },
        {
            "byteOffset" : 53264,
            "byteLength" : 2984,
            "buffer" : 0
        },
        {
            "byteOffset" : 56248,
            "byteLength" : 4476,
            "buffer" : 0
        },
        {
            "byteOffset" : 60724,
            "byteLength" : 4476,
            "buffer" : 0
        },
        {
            "byteOffset" : 65200,
            "byteLength" : 1224,
            "buffer" : 0
        },
        {
            "byteOffset" : 66424,
            "byteLength" : 3328,
            "buffer" : 0
        },
        {
            "byteOffset" : 69752,
            "byteLength" : 4992,
            "buffer" : 0
        },
        {
            "byteOffset" : 74744,
            "byteLength" : 4992,
            "buffer" : 0
        },
        {
            "byteOffset" : 79736,
            "byteLength" : 1224,
            "buffer" : 0
        },
        {
            "byteOffset" : 80960,
            "byteLength" : 25720,
            "buffer" : 0
        },
        {
            "byteOffset" : 106680,
            "byteLength" : 38580,
            "buffer" : 0
        },
        {
            "byteOffset" : 145260,
            "byteLength" : 38580,
            "buffer" : 0
        },
        {
            "byteOffset" : 183840,
            "byteLength" : 13686,
            "buffer" : 0
        },
        {
            "byteOffset" : 197528,
            "byteLength" : 1024,
            "buffer" : 0
        },
        {
            "byteOffset" : 198552,
            "byteLength" : 1536,
            "buffer" : 0
        },
        {
            "byteOffset" : 200088,
            "byteLength" : 1536,
            "buffer" : 0
        },
        {
            "byteOffset" : 201624,
            "byteLength" : 312,
            "buffer" : 0
        },
        {
            "byteOffset" : 201936,
            "byteLength" : 2720,
            "buffer" : 0
        },
        {
            "byteOffset" : 204656,
            "byteLength" : 4080,
            "buffer" : 0
        },
        {
            "byteOffset" : 208736,
            "byteLength" : 4080,
            "buffer" : 0
        },
        {
            "byteOffset" : 212816,
            "byteLength" : 2016,
            "buffer" : 0
        },
        {
            "byteOffset" : 214832,
            "byteLength" : 2720,
            "buffer" : 0
        },
        {
            "byteOffset" : 217552,
            "byteLength" : 4080,
            "buffer" : 0
        },
        {
            "byteOffset" : 221632,
            "byteLength" : 4080,
            "buffer" : 0
        },
        {
            "byteOffset" : 225712,
            "byteLength" : 116608,
            "buffer" : 0
        },
        {
            "byteOffset" : 342320,
            "byteLength" : 174912,
            "buffer" : 0
        },
        {
            "byteOffset" : 517232,
            "byteLength" : 174912,
            "buffer" : 0
        },
        {
            "byteOffset" : 692144,
            "byteLength" : 51174,
            "buffer" : 0
        },
        {
            "byteOffset" : 743320,
            "byteLength" : 289680,
            "buffer" : 0
        },
        {
            "byteOffset" : 1033000,
            "byteLength" : 434520,
            "buffer" : 0
        },
        {
            "byteOffset" : 1467520,
            "byteLength" : 434520,
            "buffer" : 0
        },
        {
            "byteOffset" : 1902040,
            "byteLength" : 162324,
            "buffer" : 0
        },
        {
            "byteOffset" : 2064364,
            "byteLength" : 9744,
            "buffer" : 0
        },
        {
            "byteOffset" : 2074108,
            "byteLength" : 14616,
            "buffer" : 0
        },
        {
            "byteOffset" : 2088724,
            "byteLength" : 14616,
            "buffer" : 0
        },
        {
            "byteOffset" : 2103340,
            "byteLength" : 5364,
            "buffer" : 0
        },
        {
            "byteOffset" : 2108704,
            "byteLength" : 32,
            "buffer" : 0
        },
        {
            "byteOffset" : 2108736,
            "byteLength" : 48,
            "buffer" : 0
        },
        {
            "byteOffset" : 2108784,
            "byteLength" : 48,
            "buffer" : 0
        },
        {
            "byteOffset" : 2108832,
            "byteLength" : 12,
            "buffer" : 0
        },
        {
            "byteOffset" : 2108844,
            "byteLength" : 192,
            "buffer" : 0
        },
        {
            "byteOffset" : 2109036,
            "byteLength" : 288,
            "buffer" : 0
        },
        {
            "byteOffset" : 2109324,
            "byteLength" : 288,
            "buffer" : 0
        },
        {
            "byteOffset" : 2109612,
            "byteLength" : 72,
            "buffer" : 0
        },
        {
            "byteOffset" : 2109684,
            "byteLength" : 32,
            "buffer" : 0
        },
        {
            "byteOffset" : 2109716,
            "byteLength" : 48,
            "buffer" : 0
        },
        {
            "byteOffset" : 2109764,
            "byteLength" : 48,
            "buffer" : 0
        },
        {
            "byteOffset" : 2109812,
            "byteLength" : 32,
            "buffer" : 0
        },
        {
            "byteOffset" : 2109844,
            "byteLength" : 48,
            "buffer" : 0
        },
        {
            "byteOffset" : 2109892,
            "byteLength" : 48,
            "buffer" : 0
        },
        {
            "byteOffset" : 2109940,
            "byteLength" : 32,
            "buffer" : 0
        },
        {
            "byteOffset" : 2109972,
            "byteLength" : 48,
            "buffer" : 0
        },
        {
            "byteOffset" : 2110020,
            "byteLength" : 48,
            "buffer" : 0
        },
        {
            "byteOffset" : 2110068,
            "byteLength" : 32,
            "buffer" : 0
        },
        {
            "byteOffset" : 2110100,
            "byteLength" : 48,
            "buffer" : 0
        },
        {
            "byteOffset" : 2110148,
            "byteLength" : 48,
            "buffer" : 0
        },
        {
            "byteOffset" : 2110196,
            "byteLength" : 32,
            "buffer" : 0
        },
        {
            "byteOffset" : 2110228,
            "byteLength" : 48,
            "buffer" : 0
        },
        {
            "byteOffset" : 2110276,
            "byteLength" : 48,
            "buffer" : 0
        },
        {
            "byteOffset" : 2110324,
            "byteLength" : 1248,
            "buffer" : 0
        },
        {
            "byteOffset" : 2111572,
            "byteLength" : 1872,
            "buffer" : 0
        },
        {
            "byteOffset" : 2113444,
            "byteLength" : 1872,
            "buffer" : 0
        },
        {
            "byteOffset" : 2115316,
            "byteLength" : 1248,
            "buffer" : 0
        }
    ],
    "buffers" : [
        {
            "uri" : "Master.bin",
            "byteLength" : 2116564
        }
    ]
}
